<svg width="397" height="275" xmlns="http://www.w3.org/2000/svg">
 <defs>
  <style>.cls-1{fill:#969ba0;}.cls-2{fill:#2d3741;}.cls-3{fill:#fff;}</style>
 </defs>
 <title>illustration-search</title>
 <g>
  <title>background</title>
  <rect fill="none" id="canvas_background" height="602" width="802" y="-1" x="-1"/>
 </g>
 <g>
  <title>Layer 1</title>
  <g transform="rotate(-180, 198.959, 154.453)" id="svg_12">
   <path id="svg_1" d="m212.12,89.39697a12,12 0 1 0 12,20.77l131.88,-76.26l-47.93,0l-95.95,55.49z" class="cls-1"/>
   <path id="svg_2" d="m307.52,89.73697a12,12 0 0 0 12,20.82l77.48,-44.49l0,-27.67l-89.48,51.34z" class="cls-2"/>
   <path id="svg_3" d="m270.59,166.48697a12,12 0 1 0 12,20.77l114.41,-66.19l0,-27.73l-126.41,73.15z" class="cls-3"/>
   <path id="svg_4" d="m338,183.52697a12,12 0 1 0 12,20.76l47,-27.2l0,-27.73l-59,34.17z" class="cls-1"/>
   <path id="svg_5" d="m216.59,44.90697a12,12 0 0 0 10.41,6a11.91,11.91 0 0 0 6,-1.59l26.88,-15.41l-43.78,0a12,12 0 0 0 0.49,11z" class="cls-1"/>
   <path id="svg_6" d="m275.84,108.03697l-11.27,6.5a12,12 0 1 0 12,20.79l11.27,-6.51a12,12 0 1 0 -12,-20.78z" class="cls-1"/>
   <path id="svg_7" d="m106.43,53.41697a12,12 0 0 0 16.39,4.4l41.41,-23.91l-48,0l-5.41,3.12a12,12 0 0 0 -4.39,16.39z" class="cls-3"/>
   <path id="svg_8" d="m2.53,57.98697a12,12 0 0 0 16.39,4.39l49.31,-28.47l-48,0l-13.31,7.68a12,12 0 0 0 -4.39,16.4z" class="cls-1"/>
   <path id="svg_9" d="m190,46.52697l-66.57,38.65a12,12 0 1 0 12,20.75l66.57,-38.64a12,12 0 1 0 -12,-20.76z" class="cls-1"/>
   <path id="svg_10" d="m313.84,252.36697a12,12 0 1 0 12,20.76l71.16,-41.22l0,-27.76l-83.16,48.22z" class="cls-2"/>
   <path id="svg_11" d="m307,200.50697l-66,38a12,12 0 0 0 12,20.8l66,-38a12,12 0 0 0 -12,-20.8z" class="cls-1"/>
  </g>
 </g>
</svg>